<mxfile host="app.diagrams.net" modified="2023-10-18T13:47:03.929Z" agent="Mozilla/5.0 (Windows NT 10.0; Win64; x64) AppleWebKit/537.36 (KHTML, like Gecko) Chrome/118.0.0.0 Safari/537.36" etag="kloSqeV0EFbYGHiRf4uC" version="22.0.4" type="device">
  <diagram id="C5RBs43oDa-KdzZeNtuy" name="Page-1">
    <mxGraphModel dx="1434" dy="790" grid="1" gridSize="10" guides="1" tooltips="1" connect="1" arrows="1" fold="1" page="1" pageScale="1" pageWidth="827" pageHeight="1169" math="0" shadow="0">
      <root>
        <mxCell id="WIyWlLk6GJQsqaUBKTNV-0" />
        <mxCell id="WIyWlLk6GJQsqaUBKTNV-1" parent="WIyWlLk6GJQsqaUBKTNV-0" />
        <mxCell id="kcDt6uRODlSMpMVpDLbX-7" style="edgeStyle=orthogonalEdgeStyle;rounded=0;orthogonalLoop=1;jettySize=auto;html=1;" parent="WIyWlLk6GJQsqaUBKTNV-1" source="kcDt6uRODlSMpMVpDLbX-5" target="kcDt6uRODlSMpMVpDLbX-6" edge="1">
          <mxGeometry relative="1" as="geometry" />
        </mxCell>
        <mxCell id="kcDt6uRODlSMpMVpDLbX-5" value="начало" style="rounded=1;whiteSpace=wrap;html=1;" parent="WIyWlLk6GJQsqaUBKTNV-1" vertex="1">
          <mxGeometry x="348" y="40" width="106" height="40" as="geometry" />
        </mxCell>
        <mxCell id="kcDt6uRODlSMpMVpDLbX-9" style="edgeStyle=orthogonalEdgeStyle;rounded=0;orthogonalLoop=1;jettySize=auto;html=1;" parent="WIyWlLk6GJQsqaUBKTNV-1" source="kcDt6uRODlSMpMVpDLbX-6" edge="1">
          <mxGeometry relative="1" as="geometry">
            <mxPoint x="401" y="190" as="targetPoint" />
          </mxGeometry>
        </mxCell>
        <mxCell id="kcDt6uRODlSMpMVpDLbX-6" value="ввод n" style="shape=parallelogram;html=1;strokeWidth=2;perimeter=parallelogramPerimeter;whiteSpace=wrap;rounded=1;arcSize=12;size=0.23;" parent="WIyWlLk6GJQsqaUBKTNV-1" vertex="1">
          <mxGeometry x="351" y="100" width="100" height="60" as="geometry" />
        </mxCell>
        <mxCell id="kcDt6uRODlSMpMVpDLbX-10" style="edgeStyle=orthogonalEdgeStyle;rounded=0;orthogonalLoop=1;jettySize=auto;html=1;" parent="WIyWlLk6GJQsqaUBKTNV-1" source="kcDt6uRODlSMpMVpDLbX-8" edge="1">
          <mxGeometry relative="1" as="geometry">
            <mxPoint x="401" y="320" as="targetPoint" />
            <Array as="points">
              <mxPoint x="401" y="305" />
              <mxPoint x="402" y="305" />
            </Array>
          </mxGeometry>
        </mxCell>
        <mxCell id="kcDt6uRODlSMpMVpDLbX-34" value="Да" style="edgeLabel;html=1;align=center;verticalAlign=middle;resizable=0;points=[];" parent="kcDt6uRODlSMpMVpDLbX-10" vertex="1" connectable="0">
          <mxGeometry x="-0.1622" y="1" relative="1" as="geometry">
            <mxPoint as="offset" />
          </mxGeometry>
        </mxCell>
        <mxCell id="kcDt6uRODlSMpMVpDLbX-35" style="edgeStyle=orthogonalEdgeStyle;rounded=0;orthogonalLoop=1;jettySize=auto;html=1;" parent="WIyWlLk6GJQsqaUBKTNV-1" source="kcDt6uRODlSMpMVpDLbX-8" edge="1">
          <mxGeometry relative="1" as="geometry">
            <mxPoint x="680" y="800" as="targetPoint" />
          </mxGeometry>
        </mxCell>
        <mxCell id="kcDt6uRODlSMpMVpDLbX-36" value="Нет" style="edgeLabel;html=1;align=center;verticalAlign=middle;resizable=0;points=[];" parent="kcDt6uRODlSMpMVpDLbX-35" vertex="1" connectable="0">
          <mxGeometry x="-0.9012" y="1" relative="1" as="geometry">
            <mxPoint as="offset" />
          </mxGeometry>
        </mxCell>
        <mxCell id="kcDt6uRODlSMpMVpDLbX-8" value="пока i меньше либо равна n" style="strokeWidth=2;html=1;shape=mxgraph.flowchart.decision;whiteSpace=wrap;" parent="WIyWlLk6GJQsqaUBKTNV-1" vertex="1">
          <mxGeometry x="351" y="190" width="100" height="100" as="geometry" />
        </mxCell>
        <mxCell id="kcDt6uRODlSMpMVpDLbX-21" style="edgeStyle=orthogonalEdgeStyle;rounded=0;orthogonalLoop=1;jettySize=auto;html=1;entryX=0.5;entryY=0;entryDx=0;entryDy=0;" parent="WIyWlLk6GJQsqaUBKTNV-1" source="kcDt6uRODlSMpMVpDLbX-11" target="kcDt6uRODlSMpMVpDLbX-20" edge="1">
          <mxGeometry relative="1" as="geometry" />
        </mxCell>
        <mxCell id="kcDt6uRODlSMpMVpDLbX-11" value="ввод N" style="shape=parallelogram;html=1;strokeWidth=2;perimeter=parallelogramPerimeter;whiteSpace=wrap;rounded=1;arcSize=12;size=0.23;" parent="WIyWlLk6GJQsqaUBKTNV-1" vertex="1">
          <mxGeometry x="348" y="320" width="100" height="60" as="geometry" />
        </mxCell>
        <mxCell id="kcDt6uRODlSMpMVpDLbX-17" style="edgeStyle=orthogonalEdgeStyle;rounded=0;orthogonalLoop=1;jettySize=auto;html=1;" parent="WIyWlLk6GJQsqaUBKTNV-1" source="kcDt6uRODlSMpMVpDLbX-12" edge="1">
          <mxGeometry relative="1" as="geometry">
            <mxPoint x="398" y="600" as="targetPoint" />
          </mxGeometry>
        </mxCell>
        <mxCell id="kcDt6uRODlSMpMVpDLbX-31" value="Да" style="edgeLabel;html=1;align=center;verticalAlign=middle;resizable=0;points=[];" parent="kcDt6uRODlSMpMVpDLbX-17" vertex="1" connectable="0">
          <mxGeometry x="-0.4286" y="1" relative="1" as="geometry">
            <mxPoint x="1" y="3" as="offset" />
          </mxGeometry>
        </mxCell>
        <mxCell id="kcDt6uRODlSMpMVpDLbX-38" style="edgeStyle=orthogonalEdgeStyle;rounded=0;orthogonalLoop=1;jettySize=auto;html=1;" parent="WIyWlLk6GJQsqaUBKTNV-1" source="kcDt6uRODlSMpMVpDLbX-12" edge="1">
          <mxGeometry relative="1" as="geometry">
            <mxPoint x="210" y="530" as="targetPoint" />
          </mxGeometry>
        </mxCell>
        <mxCell id="kcDt6uRODlSMpMVpDLbX-45" value="нет" style="edgeLabel;html=1;align=center;verticalAlign=middle;resizable=0;points=[];" parent="kcDt6uRODlSMpMVpDLbX-38" vertex="1" connectable="0">
          <mxGeometry x="-0.41" y="2" relative="1" as="geometry">
            <mxPoint x="1" as="offset" />
          </mxGeometry>
        </mxCell>
        <mxCell id="kcDt6uRODlSMpMVpDLbX-12" value="пока j меньше либо равна N" style="strokeWidth=2;html=1;shape=mxgraph.flowchart.decision;whiteSpace=wrap;" parent="WIyWlLk6GJQsqaUBKTNV-1" vertex="1">
          <mxGeometry x="348" y="480" width="100" height="100" as="geometry" />
        </mxCell>
        <mxCell id="kcDt6uRODlSMpMVpDLbX-19" style="edgeStyle=orthogonalEdgeStyle;rounded=0;orthogonalLoop=1;jettySize=auto;html=1;" parent="WIyWlLk6GJQsqaUBKTNV-1" source="kcDt6uRODlSMpMVpDLbX-14" edge="1">
          <mxGeometry relative="1" as="geometry">
            <mxPoint x="398" y="690" as="targetPoint" />
          </mxGeometry>
        </mxCell>
        <mxCell id="kcDt6uRODlSMpMVpDLbX-14" value="ввод a,b" style="shape=parallelogram;html=1;strokeWidth=2;perimeter=parallelogramPerimeter;whiteSpace=wrap;rounded=1;arcSize=12;size=0.23;" parent="WIyWlLk6GJQsqaUBKTNV-1" vertex="1">
          <mxGeometry x="348" y="600" width="100" height="60" as="geometry" />
        </mxCell>
        <mxCell id="kcDt6uRODlSMpMVpDLbX-23" style="edgeStyle=orthogonalEdgeStyle;rounded=0;orthogonalLoop=1;jettySize=auto;html=1;" parent="WIyWlLk6GJQsqaUBKTNV-1" source="kcDt6uRODlSMpMVpDLbX-18" edge="1">
          <mxGeometry relative="1" as="geometry">
            <mxPoint x="310" y="740" as="targetPoint" />
          </mxGeometry>
        </mxCell>
        <mxCell id="kcDt6uRODlSMpMVpDLbX-24" value="Да" style="edgeLabel;html=1;align=center;verticalAlign=middle;resizable=0;points=[];" parent="kcDt6uRODlSMpMVpDLbX-23" vertex="1" connectable="0">
          <mxGeometry x="-0.117" y="2" relative="1" as="geometry">
            <mxPoint x="-1" as="offset" />
          </mxGeometry>
        </mxCell>
        <mxCell id="kcDt6uRODlSMpMVpDLbX-25" style="edgeStyle=orthogonalEdgeStyle;rounded=0;orthogonalLoop=1;jettySize=auto;html=1;" parent="WIyWlLk6GJQsqaUBKTNV-1" source="kcDt6uRODlSMpMVpDLbX-18" edge="1">
          <mxGeometry relative="1" as="geometry">
            <mxPoint x="480" y="740" as="targetPoint" />
          </mxGeometry>
        </mxCell>
        <mxCell id="kcDt6uRODlSMpMVpDLbX-26" value="Нет" style="edgeLabel;html=1;align=center;verticalAlign=middle;resizable=0;points=[];" parent="kcDt6uRODlSMpMVpDLbX-25" vertex="1" connectable="0">
          <mxGeometry x="-0.6309" y="2" relative="1" as="geometry">
            <mxPoint x="1" as="offset" />
          </mxGeometry>
        </mxCell>
        <mxCell id="kcDt6uRODlSMpMVpDLbX-18" value="Если a &amp;lt;= 10" style="strokeWidth=2;html=1;shape=mxgraph.flowchart.decision;whiteSpace=wrap;" parent="WIyWlLk6GJQsqaUBKTNV-1" vertex="1">
          <mxGeometry x="348" y="690" width="100" height="100" as="geometry" />
        </mxCell>
        <mxCell id="kcDt6uRODlSMpMVpDLbX-22" style="edgeStyle=orthogonalEdgeStyle;rounded=0;orthogonalLoop=1;jettySize=auto;html=1;" parent="WIyWlLk6GJQsqaUBKTNV-1" source="kcDt6uRODlSMpMVpDLbX-20" edge="1">
          <mxGeometry relative="1" as="geometry">
            <mxPoint x="398" y="480" as="targetPoint" />
          </mxGeometry>
        </mxCell>
        <mxCell id="kcDt6uRODlSMpMVpDLbX-20" value="создание пустого массива lst" style="rounded=1;whiteSpace=wrap;html=1;absoluteArcSize=1;arcSize=14;strokeWidth=2;" parent="WIyWlLk6GJQsqaUBKTNV-1" vertex="1">
          <mxGeometry x="348" y="410" width="100" height="40" as="geometry" />
        </mxCell>
        <mxCell id="kcDt6uRODlSMpMVpDLbX-30" style="edgeStyle=orthogonalEdgeStyle;rounded=0;orthogonalLoop=1;jettySize=auto;html=1;exitX=0.5;exitY=0;exitDx=0;exitDy=0;" parent="WIyWlLk6GJQsqaUBKTNV-1" source="kcDt6uRODlSMpMVpDLbX-27" edge="1">
          <mxGeometry relative="1" as="geometry">
            <mxPoint x="400" y="480" as="targetPoint" />
            <Array as="points">
              <mxPoint x="260" y="460" />
              <mxPoint x="400" y="460" />
            </Array>
          </mxGeometry>
        </mxCell>
        <mxCell id="kcDt6uRODlSMpMVpDLbX-27" value="Добавляем в массив lst [a,b]" style="rounded=1;whiteSpace=wrap;html=1;absoluteArcSize=1;arcSize=14;strokeWidth=2;" parent="WIyWlLk6GJQsqaUBKTNV-1" vertex="1">
          <mxGeometry x="210" y="720" width="100" height="40" as="geometry" />
        </mxCell>
        <mxCell id="kcDt6uRODlSMpMVpDLbX-29" style="edgeStyle=orthogonalEdgeStyle;rounded=0;orthogonalLoop=1;jettySize=auto;html=1;exitX=0.5;exitY=0;exitDx=0;exitDy=0;" parent="WIyWlLk6GJQsqaUBKTNV-1" source="kcDt6uRODlSMpMVpDLbX-28" edge="1">
          <mxGeometry relative="1" as="geometry">
            <mxPoint x="400" y="480" as="targetPoint" />
            <Array as="points">
              <mxPoint x="530" y="460" />
            </Array>
          </mxGeometry>
        </mxCell>
        <mxCell id="kcDt6uRODlSMpMVpDLbX-28" value="Добавляем в массив lst [0,0]" style="rounded=1;whiteSpace=wrap;html=1;absoluteArcSize=1;arcSize=14;strokeWidth=2;" parent="WIyWlLk6GJQsqaUBKTNV-1" vertex="1">
          <mxGeometry x="480" y="720" width="100" height="40" as="geometry" />
        </mxCell>
        <mxCell id="kcDt6uRODlSMpMVpDLbX-37" value="конец" style="rounded=1;whiteSpace=wrap;html=1;" parent="WIyWlLk6GJQsqaUBKTNV-1" vertex="1">
          <mxGeometry x="630" y="800" width="106" height="40" as="geometry" />
        </mxCell>
        <mxCell id="kcDt6uRODlSMpMVpDLbX-42" style="edgeStyle=orthogonalEdgeStyle;rounded=0;orthogonalLoop=1;jettySize=auto;html=1;" parent="WIyWlLk6GJQsqaUBKTNV-1" source="kcDt6uRODlSMpMVpDLbX-41" edge="1">
          <mxGeometry relative="1" as="geometry">
            <mxPoint x="160" y="430" as="targetPoint" />
          </mxGeometry>
        </mxCell>
        <mxCell id="kcDt6uRODlSMpMVpDLbX-41" value="Сортировка массива lst по первому элементу каждой пары по возрастанию" style="rounded=1;whiteSpace=wrap;html=1;absoluteArcSize=1;arcSize=14;strokeWidth=2;" parent="WIyWlLk6GJQsqaUBKTNV-1" vertex="1">
          <mxGeometry x="110" y="485" width="100" height="100" as="geometry" />
        </mxCell>
        <mxCell id="jI85FJ5WDd04fTz0E9YN-0" value="увеличиваем j на 1" style="rounded=1;whiteSpace=wrap;html=1;absoluteArcSize=1;arcSize=14;strokeWidth=2;" vertex="1" parent="WIyWlLk6GJQsqaUBKTNV-1">
          <mxGeometry x="210" y="640" width="100" height="40" as="geometry" />
        </mxCell>
        <mxCell id="jI85FJ5WDd04fTz0E9YN-7" value="увеличиваем j на 1" style="rounded=1;whiteSpace=wrap;html=1;absoluteArcSize=1;arcSize=14;strokeWidth=2;" vertex="1" parent="WIyWlLk6GJQsqaUBKTNV-1">
          <mxGeometry x="480" y="640" width="100" height="40" as="geometry" />
        </mxCell>
        <mxCell id="jI85FJ5WDd04fTz0E9YN-14" style="edgeStyle=orthogonalEdgeStyle;rounded=0;orthogonalLoop=1;jettySize=auto;html=1;entryX=0.5;entryY=0;entryDx=0;entryDy=0;entryPerimeter=0;exitX=0.5;exitY=0;exitDx=0;exitDy=0;" edge="1" parent="WIyWlLk6GJQsqaUBKTNV-1" source="jI85FJ5WDd04fTz0E9YN-9" target="kcDt6uRODlSMpMVpDLbX-8">
          <mxGeometry relative="1" as="geometry">
            <mxPoint x="160" y="200" as="targetPoint" />
          </mxGeometry>
        </mxCell>
        <mxCell id="jI85FJ5WDd04fTz0E9YN-9" value="увеличиваем i на 1" style="rounded=1;whiteSpace=wrap;html=1;absoluteArcSize=1;arcSize=14;strokeWidth=2;" vertex="1" parent="WIyWlLk6GJQsqaUBKTNV-1">
          <mxGeometry x="110" y="250" width="100" height="40" as="geometry" />
        </mxCell>
        <mxCell id="jI85FJ5WDd04fTz0E9YN-12" style="edgeStyle=orthogonalEdgeStyle;rounded=0;orthogonalLoop=1;jettySize=auto;html=1;entryX=0.5;entryY=1;entryDx=0;entryDy=0;" edge="1" parent="WIyWlLk6GJQsqaUBKTNV-1" source="jI85FJ5WDd04fTz0E9YN-11" target="jI85FJ5WDd04fTz0E9YN-9">
          <mxGeometry relative="1" as="geometry" />
        </mxCell>
        <mxCell id="jI85FJ5WDd04fTz0E9YN-11" value="Вывод на экран порядкового номера пары из неотсортированного массива" style="shape=parallelogram;html=1;strokeWidth=2;perimeter=parallelogramPerimeter;whiteSpace=wrap;rounded=1;arcSize=12;size=0.23;" vertex="1" parent="WIyWlLk6GJQsqaUBKTNV-1">
          <mxGeometry x="95" y="320" width="130" height="110" as="geometry" />
        </mxCell>
      </root>
    </mxGraphModel>
  </diagram>
</mxfile>
